<svg width="96" height="56" viewBox="0 0 96 56" fill="none" xmlns="http://www.w3.org/2000/svg">
<path d="M93.1747 47.9251C92.3828 47.3972 72.0586 48.453 68.3633 48.453C64.668 48.453 1.58371 46.3414 1.58371 46.3414C1.58371 46.3414 61.5006 53.996 68.3633 54.5239C75.226 55.0518 94.4944 55.5797 95.2863 54.5239C96.0781 53.4681 93.9665 48.453 93.1747 47.9251Z" fill="#0D2E67"/>
<path fill-rule="evenodd" clip-rule="evenodd" d="M60.7406 28.52C62.6876 36.44 64.6673 44.4932 68.0993 47.1332L90.7991 46.6053C95.2863 46.6053 96.3421 42.1181 94.4944 30.2404C92.6468 18.3626 84.9922 5.69511 75.49 0.941882C65.9877 -3.81134 0 10.9719 0 10.9719C0 10.9719 46.9833 6.48476 53.582 10.708C56.8808 12.8192 58.7943 20.6031 60.7406 28.52ZM62.5643 11.778C63.8673 16.1798 67.2594 26.5186 70.9743 28.7888C74.6714 31.0481 84.6019 29.9511 88.826 29.3531C89.9081 29.2 90.6248 28.1933 90.3814 27.1279C89.506 23.2972 87.0359 14.794 81.7963 11.3681C76.6087 7.97613 67.9523 8.80725 64.0354 9.41508C62.9163 9.58875 62.2429 10.692 62.5643 11.778Z" fill="#5795FF"/>
<path d="M46.3298 27.6924L45.7519 15.5572C45.7303 15.1045 45.7701 14.6352 46.0468 14.2763C46.547 13.6273 47.7188 12.8376 50.2065 14.0814C52.5905 15.2734 54.4252 22.178 55.4271 26.9282C55.9326 29.3249 54.0704 31.5022 51.6209 31.5022H50.3252C48.1901 31.5022 46.4313 29.8252 46.3298 27.6924Z" fill="#0D2E67"/>
<path d="M35.4024 12.6133L37.2417 12.3648C39.6162 12.0439 41.7382 13.8684 41.7769 16.2642L42.1613 40.1022C42.1993 42.4576 40.2038 44.3356 37.8551 44.1549L35.6313 43.9839C33.5473 43.8236 31.938 42.0858 31.938 39.9957V16.5773C31.938 14.5752 33.4183 12.8814 35.4024 12.6133Z" fill="#0D2E67"/>
<path d="M23.9185 14.2024L12.1222 15.6179C10.1118 15.8592 8.59875 17.5646 8.59875 19.5894V25.5022C8.59875 27.7114 10.3896 29.5022 12.5988 29.5022H24.3951C26.6042 29.5022 28.3951 27.7114 28.3951 25.5022V18.1739C28.3951 15.7758 26.2995 13.9166 23.9185 14.2024Z" fill="#0D2E67"/>
</svg>
