<svg width="132" height="132" viewBox="0 0 132 132" fill="none" xmlns="http://www.w3.org/2000/svg">
<rect width="132" height="132" fill="#1E2E46"/>
<path d="M111.175 85.9251C110.383 85.3972 90.0586 86.453 86.3633 86.453C82.668 86.453 19.5837 84.3414 19.5837 84.3414C19.5837 84.3414 79.5005 91.996 86.3633 92.5239C93.226 93.0518 112.494 93.5797 113.286 92.5239C114.078 91.4681 111.967 86.453 111.175 85.9251Z" fill="#5795FF"/>
<path fill-rule="evenodd" clip-rule="evenodd" d="M78.7406 66.52C80.6876 74.44 82.6673 82.4932 86.0993 85.1332L108.799 84.6053C113.286 84.6053 114.342 80.1181 112.494 68.2404C110.647 56.3626 102.992 43.6951 93.49 38.9419C83.9877 34.1887 18 48.9719 18 48.9719C18 48.9719 64.9833 44.4848 71.582 48.708C74.8808 50.8192 76.7943 58.6031 78.7406 66.52ZM80.5643 49.778C81.8673 54.1798 85.2594 64.5186 88.9743 66.7888C92.6714 69.0481 102.602 67.9511 106.826 67.3531C107.908 67.2 108.625 66.1933 108.381 65.1279C107.506 61.2972 105.036 52.794 99.7963 49.3681C94.6087 45.9761 85.9523 46.8072 82.0354 47.4151C80.9163 47.5888 80.2429 48.692 80.5643 49.778Z" fill="#2D5AA8"/>
<path d="M64.3298 65.6924L63.7519 53.5572C63.7304 53.1045 63.7701 52.6352 64.0468 52.2763C64.547 51.6273 65.7189 50.8376 68.2065 52.0814C70.5905 53.2734 72.4252 60.178 73.4271 64.9282C73.9327 67.3249 72.0704 69.5022 69.621 69.5022H68.3253C66.1901 69.5022 64.4314 67.8252 64.3298 65.6924Z" fill="#5795FF"/>
<path d="M53.4024 50.6133L55.2417 50.3647C57.6162 50.0439 59.7382 51.8684 59.7769 54.2642L60.1613 78.1022C60.1993 80.4576 58.2038 82.3356 55.8551 82.1549L53.6313 81.9839C51.5473 81.8236 49.938 80.0858 49.938 77.9956V54.5773C49.938 52.5752 51.4183 50.8814 53.4024 50.6133Z" fill="#5795FF"/>
<path d="M41.9185 52.2024L30.1222 53.6179C28.1118 53.8592 26.5988 55.5646 26.5988 57.5894V63.5022C26.5988 65.7114 28.3896 67.5022 30.5988 67.5022H42.3951C44.6042 67.5022 46.3951 65.7114 46.3951 63.5022V56.1739C46.3951 53.7758 44.2995 51.9166 41.9185 52.2024Z" fill="#5795FF"/>
</svg>
